<svg xmlns="http://www.w3.org/2000/svg" xmlns:xlink="http://www.w3.org/1999/xlink" width="200" zoomAndPan="magnify" viewBox="0 0 150 30.000001" height="40" preserveAspectRatio="xMidYMid meet" version="1.0"><defs><g/></defs><g fill="#ff00ff" fill-opacity="1"><g transform="translate(10.224921, 23.23232)"><g><path d="M 18.917969 -18.019531 L 0.902344 -18.019531 L 0.902344 -14.414062 L 8.109375 -14.414062 L 8.109375 0 L 11.710938 0 L 11.710938 -14.414062 L 18.917969 -14.414062 Z M 18.917969 -18.019531 "/></g></g></g><g fill="#ff00ff" fill-opacity="1"><g transform="translate(33.604292, 23.23232)"><g><path d="M 18.917969 -18.019531 L 4.503906 -18.019531 C 2.523438 -18.019531 0.902344 -16.398438 0.902344 -14.414062 L 0.902344 -3.605469 C 0.902344 -1.621094 2.523438 0 4.503906 0 L 18.917969 0 L 18.917969 -3.605469 L 4.503906 -3.605469 L 4.503906 -7.207031 L 18.917969 -7.207031 L 18.917969 -10.8125 L 4.503906 -10.8125 L 4.503906 -14.414062 L 18.917969 -14.414062 Z M 18.917969 -18.019531 "/></g></g></g><g fill="#ff00ff" fill-opacity="1"><g transform="translate(56.983663, 23.23232)"><g><path d="M 4.503906 -18.019531 C 2.523438 -18.019531 0.902344 -16.398438 0.902344 -14.414062 L 0.902344 0 L 4.503906 0 L 4.503906 -7.207031 L 15.316406 -7.207031 L 15.316406 0 L 18.917969 0 L 18.917969 -14.414062 C 18.917969 -16.398438 17.296875 -18.019531 15.316406 -18.019531 Z M 4.503906 -14.414062 L 15.316406 -14.414062 L 15.316406 -10.8125 L 4.503906 -10.8125 Z M 4.503906 -14.414062 "/></g></g></g><g fill="#ff00ff" fill-opacity="1"><g transform="translate(80.363037, 23.23232)"><g><path d="M 4.503906 -18.019531 C 2.523438 -18.019531 0.902344 -16.398438 0.902344 -14.414062 L 0.902344 0 L 4.503906 0 L 4.503906 -14.414062 L 8.109375 -14.414062 L 8.109375 0 L 11.710938 0 L 11.710938 -14.414062 L 15.316406 -14.414062 L 15.316406 0 L 18.917969 0 L 18.917969 -14.414062 C 18.917969 -16.398438 17.296875 -18.019531 15.316406 -18.019531 Z M 4.503906 -18.019531 "/></g></g></g><g fill="#ff00ff" fill-opacity="1"><g transform="translate(103.742405, 23.23232)"><g/></g></g><g fill="#ff00ff" fill-opacity="1"><g transform="translate(117.211447, 23.23232)"><g><path d="M 11.710938 0 L 11.710938 -8.265625 L 18.378906 -14.933594 C 18.71875 -15.269531 18.917969 -15.722656 18.917969 -16.21875 C 18.917969 -17.207031 18.109375 -18.019531 17.117188 -18.019531 L 0.902344 -18.019531 L 0.902344 -14.414062 L 12.769531 -14.414062 L 8.648438 -10.292969 C 8.289062 -9.933594 8.109375 -9.480469 8.109375 -8.988281 L 8.109375 0 Z M 11.710938 0 "/></g></g></g><g fill="#00ffff" fill-opacity="1"><g transform="translate(12.968197, 23.865655)"><g><path d="M 18.917969 -18.019531 L 0.902344 -18.019531 L 0.902344 -14.414062 L 8.109375 -14.414062 L 8.109375 0 L 11.710938 0 L 11.710938 -14.414062 L 18.917969 -14.414062 Z M 18.917969 -18.019531 "/></g></g></g><g fill="#00ffff" fill-opacity="1"><g transform="translate(36.347568, 23.865655)"><g><path d="M 18.917969 -18.019531 L 4.503906 -18.019531 C 2.523438 -18.019531 0.902344 -16.398438 0.902344 -14.414062 L 0.902344 -3.605469 C 0.902344 -1.621094 2.523438 0 4.503906 0 L 18.917969 0 L 18.917969 -3.605469 L 4.503906 -3.605469 L 4.503906 -7.207031 L 18.917969 -7.207031 L 18.917969 -10.8125 L 4.503906 -10.8125 L 4.503906 -14.414062 L 18.917969 -14.414062 Z M 18.917969 -18.019531 "/></g></g></g><g fill="#00ffff" fill-opacity="1"><g transform="translate(59.726939, 23.865655)"><g><path d="M 4.503906 -18.019531 C 2.523438 -18.019531 0.902344 -16.398438 0.902344 -14.414062 L 0.902344 0 L 4.503906 0 L 4.503906 -7.207031 L 15.316406 -7.207031 L 15.316406 0 L 18.917969 0 L 18.917969 -14.414062 C 18.917969 -16.398438 17.296875 -18.019531 15.316406 -18.019531 Z M 4.503906 -14.414062 L 15.316406 -14.414062 L 15.316406 -10.8125 L 4.503906 -10.8125 Z M 4.503906 -14.414062 "/></g></g></g><g fill="#00ffff" fill-opacity="1"><g transform="translate(83.106313, 23.865655)"><g><path d="M 4.503906 -18.019531 C 2.523438 -18.019531 0.902344 -16.398438 0.902344 -14.414062 L 0.902344 0 L 4.503906 0 L 4.503906 -14.414062 L 8.109375 -14.414062 L 8.109375 0 L 11.710938 0 L 11.710938 -14.414062 L 15.316406 -14.414062 L 15.316406 0 L 18.917969 0 L 18.917969 -14.414062 C 18.917969 -16.398438 17.296875 -18.019531 15.316406 -18.019531 Z M 4.503906 -18.019531 "/></g></g></g><g fill="#00ffff" fill-opacity="1"><g transform="translate(106.485681, 23.865655)"><g/></g></g><g fill="#00ffff" fill-opacity="1"><g transform="translate(119.954724, 23.865655)"><g><path d="M 11.710938 0 L 11.710938 -8.265625 L 18.378906 -14.933594 C 18.71875 -15.269531 18.917969 -15.722656 18.917969 -16.21875 C 18.917969 -17.207031 18.109375 -18.019531 17.117188 -18.019531 L 0.902344 -18.019531 L 0.902344 -14.414062 L 12.769531 -14.414062 L 8.648438 -10.292969 C 8.289062 -9.933594 8.109375 -9.480469 8.109375 -8.988281 L 8.109375 0 Z M 11.710938 0 "/></g></g></g><g fill="#ffffff" fill-opacity="1"><g transform="translate(11.596559, 23.548987)"><g><path d="M 18.917969 -18.019531 L 0.902344 -18.019531 L 0.902344 -14.414062 L 8.109375 -14.414062 L 8.109375 0 L 11.710938 0 L 11.710938 -14.414062 L 18.917969 -14.414062 Z M 18.917969 -18.019531 "/></g></g></g><g fill="#ffffff" fill-opacity="1"><g transform="translate(34.97593, 23.548987)"><g><path d="M 18.917969 -18.019531 L 4.503906 -18.019531 C 2.523438 -18.019531 0.902344 -16.398438 0.902344 -14.414062 L 0.902344 -3.605469 C 0.902344 -1.621094 2.523438 0 4.503906 0 L 18.917969 0 L 18.917969 -3.605469 L 4.503906 -3.605469 L 4.503906 -7.207031 L 18.917969 -7.207031 L 18.917969 -10.8125 L 4.503906 -10.8125 L 4.503906 -14.414062 L 18.917969 -14.414062 Z M 18.917969 -18.019531 "/></g></g></g><g fill="#ffffff" fill-opacity="1"><g transform="translate(58.355301, 23.548987)"><g><path d="M 4.503906 -18.019531 C 2.523438 -18.019531 0.902344 -16.398438 0.902344 -14.414062 L 0.902344 0 L 4.503906 0 L 4.503906 -7.207031 L 15.316406 -7.207031 L 15.316406 0 L 18.917969 0 L 18.917969 -14.414062 C 18.917969 -16.398438 17.296875 -18.019531 15.316406 -18.019531 Z M 4.503906 -14.414062 L 15.316406 -14.414062 L 15.316406 -10.8125 L 4.503906 -10.8125 Z M 4.503906 -14.414062 "/></g></g></g><g fill="#ffffff" fill-opacity="1"><g transform="translate(81.734675, 23.548987)"><g><path d="M 4.503906 -18.019531 C 2.523438 -18.019531 0.902344 -16.398438 0.902344 -14.414062 L 0.902344 0 L 4.503906 0 L 4.503906 -14.414062 L 8.109375 -14.414062 L 8.109375 0 L 11.710938 0 L 11.710938 -14.414062 L 15.316406 -14.414062 L 15.316406 0 L 18.917969 0 L 18.917969 -14.414062 C 18.917969 -16.398438 17.296875 -18.019531 15.316406 -18.019531 Z M 4.503906 -18.019531 "/></g></g></g><g fill="#ffffff" fill-opacity="1"><g transform="translate(105.114043, 23.548987)"><g/></g></g><g fill="#ffffff" fill-opacity="1"><g transform="translate(118.583085, 23.548987)"><g><path d="M 11.710938 0 L 11.710938 -8.265625 L 18.378906 -14.933594 C 18.71875 -15.269531 18.917969 -15.722656 18.917969 -16.21875 C 18.917969 -17.207031 18.109375 -18.019531 17.117188 -18.019531 L 0.902344 -18.019531 L 0.902344 -14.414062 L 12.769531 -14.414062 L 8.648438 -10.292969 C 8.289062 -9.933594 8.109375 -9.480469 8.109375 -8.988281 L 8.109375 0 Z M 11.710938 0 "/></g></g></g></svg>